<?xml version="1.0" encoding="UTF-8"?>
<svg width="10px" height="16px" viewBox="0 0 10 16" version="1.1" xmlns="http://www.w3.org/2000/svg" xmlns:xlink="http://www.w3.org/1999/xlink">
    <!-- Generator: Sketch 52.3 (67297) - http://www.bohemiancoding.com/sketch -->
    <title>icon_arrow_right</title>
    <desc>Created with Sketch.</desc>
    <g id="icon规范" stroke="none" stroke-width="1" fill="none" fill-rule="evenodd">
        <g id="iPad-Copy-2" transform="translate(-148.000000, -260.000000)" fill="#666666" fill-rule="nonzero">
            <path d="M150.856305,260.72642 L157.311805,267.299292 C157.693874,267.688308 157.693874,268.311692 157.311805,268.700708 L150.856305,275.27358 C150.469315,275.667607 149.836176,275.673311 149.442149,275.28632 C149.437864,275.282112 149.433617,275.277865 149.429409,275.27358 L148.688195,274.51889 C148.306126,274.129874 148.306126,273.50649 148.688195,273.117474 L153.714286,268 L148.688195,262.882526 C148.306126,262.49351 148.306126,261.870126 148.688195,261.48111 L149.429409,260.72642 C149.816399,260.332393 150.449539,260.326689 150.843565,260.71368 C150.84785,260.717888 150.852097,260.722135 150.856305,260.72642 Z" id="icon_arrow_right"></path>
        </g>
    </g>
</svg>