<?xml version="1.0" encoding="UTF-8"?>
<svg width="16px" height="16px" viewBox="0 0 16 16" version="1.1" xmlns="http://www.w3.org/2000/svg" xmlns:xlink="http://www.w3.org/1999/xlink">
    <!-- Generator: Sketch 52.3 (67297) - http://www.bohemiancoding.com/sketch -->
    <title>icon_share</title>
    <desc>Created with Sketch.</desc>
    <g id="icon规范" stroke="none" stroke-width="1" fill="none" fill-rule="evenodd">
        <g id="iPad-Copy-2" transform="translate(-264.000000, -320.000000)" fill="#666666" fill-rule="nonzero">
            <path d="M265,320 L279,320 C279.552285,320 280,320.447715 280,321 L280,335 C280,335.552285 279.552285,336 279,336 L265,336 C264.447715,336 264,335.552285 264,335 L264,321 C264,320.447715 264.447715,320 265,320 Z M270.499695,325.982389 L272.656854,325.982389 L268.358268,330.243126 L268.355141,330.246252 C268.160744,330.442376 268.162144,330.758956 268.358268,330.953352 L269.062227,331.651113 C269.257125,331.844295 269.571302,331.844295 269.7662,331.651113 L274,327.454593 L274,329.5 C274,329.776142 274.223858,330 274.5,330 L275.5,330 C275.776142,330 276,329.776142 276,329.5 L276,324.5 C276,324.223858 275.776142,324 275.5,324 L270.499695,324 C270.223552,324 269.999695,324.223858 269.999695,324.5 L269.999695,325.482389 C269.999695,325.758532 270.223552,325.982389 270.499695,325.982389 Z" id="icon_share"></path>
        </g>
    </g>
</svg>